<svg id="图层_1" data-name="图层 1" xmlns="http://www.w3.org/2000/svg" xmlns:xlink="http://www.w3.org/1999/xlink" viewBox="0 0 83 83"><defs><style>.cls-1{fill:url(#未命名的渐变_21);}.cls-2{fill:url(#未命名的渐变_21-2);}.cls-3{fill:url(#未命名的渐变_21-3);}</style><linearGradient id="未命名的渐变_21" x1="3.92" y1="24.23" x2="80.73" y2="50.34" gradientUnits="userSpaceOnUse"><stop offset="0.16" stop-color="#0040ff"/><stop offset="1" stop-color="aqua"/></linearGradient><linearGradient id="未命名的渐变_21-2" x1="-1.1" y1="39" x2="75.71" y2="65.11" xlink:href="#未命名的渐变_21"/><linearGradient id="未命名的渐变_21-3" x1="11.78" y1="1.1" x2="88.59" y2="27.22" xlink:href="#未命名的渐变_21"/></defs><title>DIP for Supply Chain</title><path class="cls-1" d="M16.91,33.72A7.86,7.86,0,0,1,28,22.6L44.35,38.92a7.86,7.86,0,0,1,0,11.12A7.68,7.68,0,0,1,40.2,52.2l6.95,6.95a16.58,16.58,0,0,0,3.59-2.72,16.9,16.9,0,0,0,0-23.9L34.42,16.21a16.9,16.9,0,1,0-23.9,23.9l8.19,8.18A20.44,20.44,0,0,1,19.79,36.6Z"/><path class="cls-2" d="M58.16,40a20,20,0,0,1-.9,11.88L60.44,55A7.86,7.86,0,1,1,49.32,66.13l-1.65-1.65L33,49.81a7.87,7.87,0,0,1,0-11.12,6.84,6.84,0,0,1,1.12-.92,7.82,7.82,0,0,1,3.53-1.3l-7.1-7.1a16.86,16.86,0,0,0-2.78,1.93l0,0q-.58.48-1.14,1a16.93,16.93,0,0,0,0,23.91L41.28,70.87l1.65,1.65a16.9,16.9,0,1,0,23.9-23.9Z"/><path class="cls-3" d="M77.28,18.6a1.8,1.8,0,0,0-.85-.89L74.06,16.6a14.53,14.53,0,0,1-7.35-7.91l-.81-2a1.69,1.69,0,0,0-3.14-.07l-.88,2a14.57,14.57,0,0,1-7.66,7.61l-2.42,1a1.78,1.78,0,0,0-.91,2.33,1.82,1.82,0,0,0,.85.88l2.51,1.18a14.57,14.57,0,0,1,7.25,7.65l.78,1.91a1.69,1.69,0,0,0,3.11.06l.86-1.87A14.54,14.54,0,0,1,73.81,22l2.55-1.08A1.77,1.77,0,0,0,77.28,18.6Z"/></svg>
